<svg width="29" height="29" viewBox="0 0 29 29" fill="none" xmlns="http://www.w3.org/2000/svg">
<g clip-path="url(#clip0_4_3)">
<path d="M28.7467 27.5211L21.6992 20.4736C23.5897 18.3002 24.7343 15.4645 24.7343 12.3652C24.7343 5.54279 19.1851 0 12.3691 0C5.5467 0 0.00390625 5.54922 0.00390625 12.3652C0.00390625 19.1812 5.55313 24.7304 12.3691 24.7304C15.4684 24.7304 18.3041 23.5858 20.4775 21.6953L27.525 28.7428C27.6922 28.91 27.9172 29 28.1358 29C28.3545 29 28.5795 28.9164 28.7467 28.7428C29.0811 28.4084 29.0811 27.8554 28.7467 27.5211ZM1.73362 12.3652C1.73362 6.50089 6.50479 1.73614 12.3627 1.73614C18.227 1.73614 22.9917 6.50732 22.9917 12.3652C22.9917 18.2231 18.227 23.0007 12.3627 23.0007C6.50479 23.0007 1.73362 18.2295 1.73362 12.3652Z" fill="#333333"/>
</g>
<defs>
<clipPath id="clip0_4_3">
<rect width="29" height="29" fill="white"/>
</clipPath>
</defs>
</svg>
